<svg xmlns="http://www.w3.org/2000/svg" width="62" height="16" viewBox="0 0 62 16"><g fill="#FFF" fill-rule="nonzero"><path d="M10.152 2c.847 0 1.538.685 1.538 1.532v8.577c0 .844-.688 1.532-1.539 1.532H1.54c-.848 0-1.54-.685-1.54-1.532V3.53C0 2.685.688 2 1.54 2h8.612zM5.98 4.941a3.297 3.297 0 0 0-3.303 3.291A3.293 3.293 0 0 0 5.98 11.52a3.297 3.297 0 0 0 3.302-3.29A3.292 3.292 0 0 0 5.98 4.94zm0 5.608a2.323 2.323 0 0 1-2.327-2.317A2.323 2.323 0 0 1 5.98 5.916a2.323 2.323 0 0 1 2.326 2.316A2.32 2.32 0 0 1 5.98 10.55zm0-2.433c0 .049.053.084.099.06l1.54-.794c.035-.018.045-.06.027-.095a1.915 1.915 0 0 0-1.594-.965c-.036 0-.072.029-.072.068v1.726zM3.824 5.12l-.203-.2a.505.505 0 0 0-.716 0l-.241.24a.5.5 0 0 0 0 .712l.198.198c.032.033.078.025.107-.006a3.691 3.691 0 0 1 .844-.841c.035-.022.038-.072.01-.103zM7.06 4.2a.506.506 0 0 0-.507-.506H5.373a.507.507 0 0 0-.507.506v.41a.07.07 0 0 0 .089.066 3.738 3.738 0 0 1 2.021-.01.069.069 0 0 0 .086-.066v-.4zM36.573 11.915c0 1.316-.335 2.277-1.009 2.888-.673.61-1.702.916-3.089.916-.506 0-1.56-.098-2.4-.286l.31-1.527c.703.148 1.633.187 2.12.187.772 0 1.323-.158 1.653-.473.33-.315.491-.783.491-1.404V11.9a5.735 5.735 0 0 1-.752.286c-.31.094-.67.143-1.072.143a4.023 4.023 0 0 1-1.452-.251 3.033 3.033 0 0 1-1.126-.74 3.38 3.38 0 0 1-.728-1.221c-.172-.488-.26-1.36-.26-2.001 0-.601.093-1.355.275-1.858.187-.502.452-.936.811-1.296.355-.36.787-.635 1.294-.838a4.732 4.732 0 0 1 1.746-.33c.625 0 1.2.08 1.761.173.561.093 1.038.192 1.427.3v7.648zm-5.347-3.804c0 .808.177 1.705.531 2.08.354.374.812.561 1.373.561.304 0 .595-.044.865-.128s.487-.182.66-.3V5.538a7.591 7.591 0 0 0-1.27-.163c-.698-.02-1.23.266-1.603.724-.37.459-.556 1.262-.556 2.011zm14.477 0c0 .65-.094 1.143-.286 1.68a3.976 3.976 0 0 1-.811 1.375c-.35.38-.768.675-1.26.882-.492.207-1.25.325-1.628.325-.379-.005-1.131-.113-1.618-.325a3.664 3.664 0 0 1-1.255-.882c-.349-.38-.62-.838-.816-1.375a4.581 4.581 0 0 1-.295-1.68c0-.65.088-1.276.285-1.808.197-.533.472-.986.826-1.365.355-.38.778-.67 1.26-.878a4.062 4.062 0 0 1 1.603-.305c.58 0 1.117.103 1.609.305.492.207.915.498 1.26.878.348.379.619.832.816 1.365.206.532.31 1.158.31 1.808zm-1.968.005c0-.833-.182-1.528-.536-2.01-.354-.488-.851-.73-1.486-.73-.634 0-1.131.242-1.485.73-.355.487-.527 1.177-.527 2.01 0 .843.177 1.41.532 1.897.354.493.85.734 1.485.734.635 0 1.132-.246 1.486-.734.354-.493.53-1.054.53-1.897zm6.252 4.257c-3.153.015-3.153-2.552-3.153-2.961L46.829.306 48.752 0v9.047c0 .232 0 1.7 1.235 1.705v1.621zm3.39 0h-1.934V4.055l1.933-.305v8.623zm-.97-9.535a1.167 1.167 0 1 0 0-2.336 1.167 1.167 0 1 0 0 2.336zm5.775.917c.635 0 1.17.079 1.604.236.433.158.782.38 1.038.66.255.282.437.666.546 1.07.113.404.167.848.167 1.335v4.958c-.295.064-.743.138-1.343.226-.6.09-1.274.133-2.022.133-.497 0-.954-.049-1.362-.142a2.873 2.873 0 0 1-1.058-.459 2.218 2.218 0 0 1-.684-.818c-.162-.335-.246-.808-.246-1.3 0-.474.094-.774.276-1.1.187-.325.438-.59.753-.798.32-.207.683-.355 1.101-.443a6.302 6.302 0 0 1 1.978-.094c.236.025.482.069.748.133v-.315c0-.222-.025-.434-.08-.631a1.354 1.354 0 0 0-.275-.527 1.292 1.292 0 0 0-.521-.355 2.268 2.268 0 0 0-.822-.148c-.442 0-.846.054-1.215.118a5.525 5.525 0 0 0-.905.222l-.23-1.582c.24-.083.6-.167 1.062-.251.462-.084.959-.128 1.49-.128zm.162 6.992c.59 0 1.029-.034 1.334-.093V8.692a4.578 4.578 0 0 0-1.131-.143c-.212 0-.429.015-.645.05-.217.03-.413.088-.586.172a1.05 1.05 0 0 0-.418.355c-.108.153-.157.242-.157.473 0 .453.157.715.443.887.29.177.673.261 1.16.261zM20.36 3.804c.634 0 1.17.079 1.603.237.433.157.782.38 1.038.66.26.286.438.665.546 1.07.113.403.167.847.167 1.335v4.957c-.295.064-.742.138-1.342.227-.6.088-1.274.133-2.022.133-.497 0-.954-.05-1.363-.143a2.873 2.873 0 0 1-1.057-.458 2.218 2.218 0 0 1-.684-.818c-.162-.336-.246-.809-.246-1.301 0-.473.093-.774.275-1.1.187-.324.438-.59.753-.798.32-.207.684-.354 1.102-.443a6.302 6.302 0 0 1 1.977-.094c.232.025.482.07.748.133v-.315c0-.222-.025-.434-.079-.63a1.354 1.354 0 0 0-.275-.528 1.292 1.292 0 0 0-.522-.355 2.268 2.268 0 0 0-.821-.148c-.443 0-.846.055-1.215.119a5.525 5.525 0 0 0-.905.221l-.231-1.581c.24-.084.6-.168 1.062-.252.463-.088.96-.128 1.49-.128zm.167 6.997c.59 0 1.028-.034 1.333-.093V8.747a4.578 4.578 0 0 0-1.131-.143c-.212 0-.428.015-.645.049-.216.03-.413.089-.585.172a1.05 1.05 0 0 0-.418.355c-.108.153-.158.242-.158.473 0 .454.158.715.443.887.285.173.674.261 1.16.261zm7.797 1.572c-3.153.015-3.153-2.552-3.153-2.961L25.166.306 27.089 0v9.047c0 .232 0 1.7 1.235 1.705v1.621z"/></g></svg>