<svg xmlns="http://www.w3.org/2000/svg" width="179" height="56" viewBox="0 0 179 56"><g fill="none" fill-rule="evenodd"><g fill="#F8E71C" fill-rule="nonzero"><path d="M28 0l.907 2.936h2.936L29.468 4.75l.907 2.936L28 5.871l-2.375 1.815.908-2.936-2.376-1.814h2.936zM28 48.314l.907 2.937h2.936l-2.375 1.814.907 2.935L28 54.186 25.625 56l.908-2.935-2.376-1.814h2.936zM40.078 4.392l.907 2.936h2.937l-2.376 1.815.907 2.935-2.375-1.815-2.375 1.815.907-2.935-2.375-1.815h2.937zM49.844 36l.906 2.937h2.936l-2.375 1.814.908 2.935-2.375-1.813-2.376 1.813.907-2.935L46 38.937h2.936zM52.157 24.157l.907 2.936H56l-2.375 1.814.907 2.936-2.375-1.813-2.375 1.813.908-2.936-2.376-1.814h2.935zM3.844 24.157l.906 2.936h2.936l-2.375 1.814.908 2.936-2.375-1.813-2.376 1.813.907-2.936L0 27.093h2.936zM5.844 36l.906 2.937h2.936L7.311 40.75l.907 2.935-2.374-1.813-2.376 1.813.907-2.935L2 38.937h2.936zM49.844 12l.906 2.937h2.936l-2.375 1.814.908 2.935-2.375-1.813-2.376 1.813.907-2.935L46 14.937h2.936zM6.844 12l.906 2.937h2.936L8.311 16.75l.907 2.935-2.374-1.813-2.376 1.813.907-2.935L3 14.937h2.936zM42.275 46.118l.906 2.935h2.937l-2.376 1.815.908 2.936-2.375-1.814-2.376 1.814.908-2.936-2.376-1.815h2.937zM15.922 4.392l.906 2.936h2.937l-2.376 1.815.908 2.935-2.375-1.815-2.375 1.815.907-2.935-2.376-1.815h2.936zM13.725 46.118l.907 2.937h2.937l-2.376 1.813.908 2.936-2.376-1.813-2.375 1.813.908-2.936-2.376-1.813h2.936z"/></g><text fill="#FFF" font-family="Poppins-Bold, Poppins" font-size="18" font-weight="bold" letter-spacing="2"><tspan x="77" y="26">GPD</tspan> <tspan x="121.052" y="26">R</tspan></text><text fill="#FFF" font-family="Poppins-Medium, Poppins" font-size="12" font-weight="400" letter-spacing="1.846" opacity=".5"><tspan x="77" y="45">OFFICIAL TEXT</tspan></text></g></svg>