<svg xmlns="http://www.w3.org/2000/svg" width="14" height="14"><g fill="none" fill-rule="evenodd"><path fill="#798196" fill-rule="nonzero" d="M.327 1.355c0-.535.44-.968.985-.968h11.355c.544 0 .985.433.985.968V12.93a.976.976 0 0 1-.985.968H1.312a.976.976 0 0 1-.985-.968V1.355z"/><path fill="#EFF0F3" d="M4.366 11.698V5.597H2.354v6.101h2.012zM3.36 4.764c.702 0 1.139-.469 1.139-1.055-.014-.598-.437-1.054-1.126-1.054-.688 0-1.138.456-1.138 1.054 0 .586.436 1.055 1.112 1.055h.013zm2.12 6.934h2.012V8.291c0-.183.013-.365.067-.495.145-.364.476-.742 1.032-.742.728 0 1.02.56 1.02 1.38v3.264h2.012V8.2c0-1.875-.993-2.747-2.317-2.747-1.086 0-1.562.612-1.827 1.028h.013v-.884H5.48c.026.572 0 6.101 0 6.101z"/></g></svg>