<svg xmlns="http://www.w3.org/2000/svg" width="16" height="14"><g fill="none" fill-rule="evenodd"><path d="M-4-5h24v24H-4z"/><path fill="#798196" fill-rule="nonzero" d="M5.217 13.095c5.66 0 8.757-4.69 8.757-8.756 0-.133 0-.266-.01-.398A6.262 6.262 0 0 0 15.5 2.348a6.143 6.143 0 0 1-1.768.484 3.088 3.088 0 0 0 1.353-1.702 6.167 6.167 0 0 1-1.954.747 3.08 3.08 0 0 0-5.244 2.807 8.737 8.737 0 0 1-6.343-3.215 3.08 3.08 0 0 0 .953 4.108A3.055 3.055 0 0 1 1.1 5.192v.039a3.079 3.079 0 0 0 2.469 3.016 3.073 3.073 0 0 1-1.39.053 3.081 3.081 0 0 0 2.876 2.137A6.175 6.175 0 0 1 .5 11.713a8.713 8.713 0 0 0 4.717 1.38"/></g></svg>