<svg xmlns="http://www.w3.org/2000/svg" width="64" height="64" viewBox="0 0 64 64">
    <g fill="none" fill-rule="evenodd">
        <path fill="#2050E0" d="M0 0h64v64H0z"/>
        <g fill="#F8E71C" fill-rule="nonzero">
            <path d="M29.92 14.4l1.993-1.457L33.91 14.4l-.76-2.357 2.027-1.453h-2.5l-.764-2.383-.763 2.383h-2.497l2.024 1.453zM19.597 17.173l1.993-1.456 1.993 1.456-.756-2.356 2.026-1.454h-2.5l-.763-2.386-.763 2.386H18.33l2.023 1.454zM14.037 18.547l-.764 2.386h-2.496l2.026 1.454-.76 2.356 1.994-1.456 1.996 1.456-.76-2.356 2.024-1.454h-2.494zM11.267 33.597l1.993 1.456-.757-2.356 2.024-1.454H12.03l-.763-2.386-.764 2.39-2.496-.004 2.023 1.454-.757 2.356zM14.803 41.583l-.766-2.386-.764 2.39-2.496-.004 2.026 1.457-.76 2.353 1.994-1.456 1.996 1.456-.76-2.353 2.024-1.457zM22.37 49.15l-.763-2.38-.764 2.383-2.5-.003 2.027 1.457-.757 2.353 1.994-1.453L23.6 52.96l-.757-2.353 2.024-1.457zM32.68 51.893l-.763-2.386-.764 2.39-2.496-.004 2.023 1.457-.757 2.353 1.994-1.456 1.993 1.456-.76-2.353 2.027-1.457zM42.99 49.15l-.763-2.38-.767 2.383-2.493-.003 2.023 1.457-.76 2.353 1.997-1.453 1.993 1.453-.76-2.353 2.027-1.457zM50.56 41.583l-.767-2.386-.763 2.39-2.497-.004 2.027 1.457-.76 2.353 1.993-1.456 1.997 1.456-.76-2.353 2.023-1.457zM55.797 31.213H53.3l-.767-2.386-.763 2.39-2.497-.004L51.3 32.67l-.757 2.353 1.99-1.46 1.997 1.46-.76-2.353zM47.8 24.71l1.993-1.453 1.997 1.453-.76-2.353 2.023-1.454H50.56l-.767-2.386-.763 2.39-2.497-.004 2.027 1.454zM42.257 10.98l-.764 2.387-2.5-.004 2.027 1.457-.76 2.353 1.997-1.456 1.993 1.456-.757-2.353 2.027-1.457h-2.5z"/>
        </g>
    </g>
</svg>
